<svg xmlns="http://www.w3.org/2000/svg" viewBox="0 0 128 128" role="img" aria-labelledby="title desc">
    <title id="title">Java coffee cup</title>
    <desc id="desc">Stylized coffee cup with steam inspired by Java.</desc>
    <path fill="#f89820" d="M55.9 17.8c8.6 8.9-4.2 15.9-7.3 23.4-2.1 5 2.9 9.7 8.7 14.5-9.8-3.5-20.1-9.7-15.3-19.1 3.9-7.5 15.2-11.2 13.9-18.8Z"/>
    <path fill="#5382a1" d="M72.8 7c11.4 11.7-5.6 20.6-9.6 30.5-2.7 6.5 3.6 12.7 11.5 18.8-13-4.8-26.7-13-20.4-25.1C59.4 21.3 74.6 16.5 72.8 7Z"/>
    <path fill="#5382a1" d="M81 49.8c24.3 2.6 28.1 11.9 6.7 17.2-16 4-42.1 3.4-56.7-1.2 4.4 7.1 35.2 10.1 57.2 4.2 30-8 19-20-7.2-20.2Z"/>
    <path fill="#f89820" d="M45.7 75.8c-11.4-3.3-18.1-8.5-18.1-14.2 0-6.3 8.3-12 21.5-15.3-18.6 2.4-31.5 8.7-31.5 16 0 7 11.4 13.1 28.1 13.5Z"/>
    <path fill="#5382a1" d="M41.8 82.1h43.5c-2.2 11.8-10.8 20.6-21.8 20.6S44 93.9 41.8 82.1Z"/>
    <path fill="#5382a1" d="M86.4 84.6h4.9c6.1 0 11 4.8 11 10.6s-4.9 10.6-11 10.6H81.2l1.4-6h8.7c2.6 0 4.8-2 4.8-4.6s-2.1-4.6-4.8-4.6h-5.9l1-6Z"/>
    <path fill="#f89820" d="M29.6 109.4c19.7 8.1 56.4 7.3 71.2-1.4-2.7 8.6-16.8 13-34.3 13-17.1 0-32.1-4.3-36.9-11.6Z"/>
    <path fill="#5382a1" d="M105.1 75.8c7.3 4.6-1.5 9.6-11.8 12.3 6.9-4.6 6.1-8.4-1.4-11.5 5.4-1.1 10.5-1.4 13.2-.8Z"/>
</svg>
